<?xml version="1.0" encoding="utf-8"?>
<!-- Generator: Adobe Illustrator 25.0.1, SVG Export Plug-In . SVG Version: 6.00 Build 0)  -->
<svg version="1.1" id="Layer_1" xmlns="http://www.w3.org/2000/svg" xmlns:xlink="http://www.w3.org/1999/xlink" x="0px" y="0px"
	 viewBox="0 0 1930.43 352.63" style="enable-background:new 0 0 1930.43 352.63;" xml:space="preserve">
<style type="text/css">
	.st0{fill:#FFFFFF;}
	.st1{fill:url(#SVGID_1_);}
	.st2{fill:url(#SVGID_2_);}
	.st3{fill:url(#SVGID_3_);}
	.st4{fill:url(#SVGID_4_);}
	.st5{fill:url(#SVGID_5_);}
	.st6{fill:url(#SVGID_6_);}
	.st7{fill:url(#SVGID_7_);}
	.st8{fill:url(#SVGID_8_);}
	.st9{fill:url(#SVGID_9_);}
	.st10{fill:url(#SVGID_10_);}
	.st11{fill:url(#SVGID_11_);}
	.st12{fill:url(#SVGID_12_);}
	.st13{fill:url(#SVGID_13_);}
	.st14{fill:url(#SVGID_14_);}
	.st15{fill:url(#SVGID_15_);}
	.st16{fill:url(#SVGID_16_);}
	.st17{fill:url(#SVGID_17_);}
	.st18{fill:url(#SVGID_18_);}
	.st19{fill:url(#SVGID_19_);}
	.st20{fill:url(#SVGID_20_);}
	.st21{fill:url(#SVGID_21_);}
	.st22{fill:url(#SVGID_22_);}
	.st23{fill:url(#SVGID_23_);}
	.st24{fill:url(#SVGID_24_);}
	.st25{fill:#1F3AA2;}
	.st26{fill:url(#SVGID_25_);}
	.st27{fill:url(#SVGID_26_);}
	.st28{fill:url(#SVGID_27_);}
	.st29{fill:url(#SVGID_28_);}
	.st30{fill:url(#SVGID_29_);}
	.st31{fill:url(#SVGID_30_);}
	.st32{fill:url(#SVGID_31_);}
	.st33{fill:url(#SVGID_32_);}
	.st34{fill:url(#SVGID_33_);}
	.st35{fill:url(#SVGID_34_);}
	.st36{fill:url(#SVGID_35_);}
	.st37{fill:url(#SVGID_36_);}
	.st38{fill:url(#SVGID_37_);}
	.st39{fill:url(#SVGID_38_);}
	.st40{fill:#011124;}
	.st41{fill:url(#SVGID_39_);}
	.st42{fill:url(#SVGID_40_);}
	.st43{fill:url(#SVGID_41_);}
	.st44{fill:url(#SVGID_42_);}
	.st45{fill:url(#SVGID_43_);}
	.st46{fill:url(#SVGID_44_);}
	.st47{fill:url(#SVGID_45_);}
	.st48{fill:url(#SVGID_46_);}
	.st49{fill:url(#SVGID_47_);}
	.st50{fill:url(#SVGID_48_);}
	.st51{fill:url(#SVGID_49_);}
	.st52{fill:url(#SVGID_50_);}
	.st53{fill:url(#SVGID_51_);}
	.st54{fill:url(#SVGID_52_);}
</style>
<g>
	<g>
		<path class="st40" d="M620.88,206.91H569.5l-8.24,24.32h-35.11l49.82-137.68h38.83l49.82,137.68h-35.5L620.88,206.91z
			 M612.25,181.02l-17.06-50.41l-16.87,50.41H612.25z"/>
		<path class="st40" d="M726.8,124.93c5.75-3.14,12.48-4.71,20.2-4.71c9.02,0,17.19,2.29,24.52,6.86
			c7.32,4.58,13.11,11.11,17.36,19.61c4.25,8.5,6.37,18.37,6.37,29.62c0,11.25-2.13,21.15-6.37,29.71
			c-4.25,8.57-10.04,15.17-17.36,19.81c-7.32,4.64-15.49,6.96-24.52,6.96c-7.58,0-14.29-1.57-20.1-4.71
			c-5.82-3.14-10.36-7.19-13.63-12.16v67.47h-33.54V121.79h33.54v15.5C716.53,132.19,721.04,128.07,726.8,124.93z M754.16,156.6
			c-4.64-4.77-10.36-7.16-17.16-7.16c-6.67,0-12.33,2.42-16.97,7.26c-4.64,4.84-6.96,11.44-6.96,19.81c0,8.37,2.32,14.97,6.96,19.81
			c4.64,4.84,10.3,7.26,16.97,7.26c6.67,0,12.36-2.45,17.06-7.35c4.71-4.9,7.06-11.54,7.06-19.91
			C761.12,167.95,758.8,161.38,754.16,156.6z"/>
		<path class="st40" d="M859.97,124.93c5.75-3.14,12.49-4.71,20.2-4.71c9.02,0,17.19,2.29,24.52,6.86
			c7.32,4.58,13.11,11.11,17.36,19.61c4.25,8.5,6.37,18.37,6.37,29.62c0,11.25-2.13,21.15-6.37,29.71
			c-4.25,8.57-10.04,15.17-17.36,19.81c-7.32,4.64-15.49,6.96-24.52,6.96c-7.58,0-14.29-1.57-20.1-4.71
			c-5.82-3.14-10.36-7.19-13.63-12.16v67.47h-33.54V121.79h33.54v15.5C849.7,132.19,854.21,128.07,859.97,124.93z M887.33,156.6
			c-4.64-4.77-10.36-7.16-17.16-7.16c-6.67,0-12.33,2.42-16.97,7.26c-4.64,4.84-6.96,11.44-6.96,19.81c0,8.37,2.32,14.97,6.96,19.81
			c4.64,4.84,10.3,7.26,16.97,7.26c6.67,0,12.36-2.45,17.06-7.35c4.71-4.9,7.06-11.54,7.06-19.91
			C894.29,167.95,891.97,161.38,887.33,156.6z"/>
		<path class="st40" d="M968.82,227.8c-7.32-3.2-13.08-7.75-17.26-13.63c-4.19-5.88-6.28-12.75-6.28-20.59h23.93
			c0.52,5.88,2.84,10.72,6.96,14.51c4.12,3.79,9.91,5.69,17.36,5.69c7.71,0,13.73-1.86,18.04-5.59c4.31-3.73,6.47-8.53,6.47-14.42
			c0-4.57-1.34-8.3-4.02-11.18c-2.68-2.87-6.02-5.1-10-6.67c-3.99-1.57-9.51-3.27-16.57-5.1c-8.89-2.35-16.12-4.74-21.67-7.16
			c-5.56-2.42-10.3-6.18-14.22-11.28c-3.92-5.1-5.88-11.9-5.88-20.4c0-7.84,1.96-14.71,5.88-20.59c3.92-5.88,9.41-10.4,16.48-13.53
			c7.06-3.14,15.23-4.71,24.52-4.71c13.21,0,24.03,3.3,32.46,9.9c8.43,6.6,13.11,15.66,14.02,27.17h-24.71
			c-0.39-4.97-2.75-9.22-7.06-12.75c-4.32-3.53-10-5.3-17.06-5.3c-6.41,0-11.64,1.64-15.69,4.9c-4.05,3.27-6.08,7.98-6.08,14.12
			c0,4.19,1.27,7.62,3.82,10.3c2.55,2.68,5.79,4.81,9.71,6.38c3.92,1.57,9.28,3.27,16.08,5.1c9.02,2.48,16.38,4.97,22.07,7.45
			c5.69,2.48,10.52,6.31,14.51,11.47c3.99,5.17,5.98,12.06,5.98,20.69c0,6.93-1.86,13.47-5.59,19.61
			c-3.73,6.15-9.15,11.08-16.28,14.81c-7.13,3.73-15.53,5.59-25.2,5.59C984.38,232.6,976.14,231.01,968.82,227.8z"/>
		<path class="st40" d="M1165.34,185.53h-82.57c0.65,8.63,3.85,15.56,9.61,20.79c5.75,5.23,12.81,7.84,21.18,7.84
			c12.03,0,20.53-5.03,25.5-15.1h24.12c-3.27,9.94-9.19,18.08-17.75,24.42c-8.57,6.34-19.19,9.51-31.87,9.51
			c-10.33,0-19.58-2.32-27.75-6.96c-8.17-4.64-14.58-11.18-19.22-19.61c-4.64-8.43-6.96-18.21-6.96-29.32
			c0-11.11,2.26-20.89,6.77-29.32c4.51-8.43,10.85-14.94,19.03-19.52c8.17-4.58,17.55-6.86,28.14-6.86c10.2,0,19.28,2.22,27.26,6.67
			c7.97,4.45,14.19,10.69,18.63,18.73c4.44,8.04,6.67,17.29,6.67,27.75C1166.12,178.6,1165.86,182.27,1165.34,185.53z
			 M1142.78,167.49c-0.13-8.24-3.07-14.84-8.83-19.81c-5.75-4.97-12.88-7.45-21.38-7.45c-7.72,0-14.32,2.45-19.81,7.36
			c-5.49,4.9-8.76,11.54-9.81,19.91H1142.78z"/>
		<path class="st40" d="M1265.46,126.69c6.73,3.53,12,8.76,15.79,15.69c3.79,6.93,5.69,15.3,5.69,25.1v63.74h-22.16v-60.41
			c0-9.67-2.42-17.09-7.26-22.26c-4.84-5.16-11.44-7.75-19.81-7.75c-8.37,0-15,2.58-19.91,7.75c-4.9,5.17-7.35,12.59-7.35,22.26
			v60.41h-22.36V123.16h22.36v12.36c3.66-4.44,8.34-7.91,14.02-10.4c5.69-2.48,11.73-3.73,18.14-3.73
			C1251.11,121.4,1258.72,123.16,1265.46,126.69z"/>
		<path class="st40" d="M1331.75,228.39c-6.74-3.07-12.06-7.26-15.98-12.55c-3.92-5.3-6.02-11.21-6.28-17.75h23.14
			c0.39,4.58,2.58,8.4,6.57,11.47c3.99,3.07,8.99,4.61,15,4.61c6.28,0,11.15-1.21,14.61-3.63c3.46-2.42,5.2-5.52,5.2-9.32
			c0-4.05-1.93-7.06-5.79-9.02c-3.86-1.96-9.97-4.12-18.34-6.47c-8.11-2.22-14.71-4.38-19.81-6.47c-5.1-2.09-9.51-5.29-13.24-9.61
			c-3.73-4.32-5.59-10-5.59-17.06c0-5.75,1.7-11.01,5.1-15.79c3.4-4.77,8.27-8.53,14.61-11.28c6.34-2.75,13.63-4.12,21.87-4.12
			c12.29,0,22.2,3.11,29.72,9.32c7.52,6.21,11.54,14.68,12.06,25.4h-22.36c-0.39-4.84-2.36-8.69-5.88-11.57
			c-3.53-2.88-8.31-4.32-14.32-4.32c-5.88,0-10.4,1.11-13.53,3.33c-3.14,2.22-4.71,5.17-4.71,8.83c0,2.88,1.05,5.29,3.14,7.26
			c2.09,1.96,4.64,3.5,7.65,4.61c3.01,1.11,7.45,2.52,13.34,4.22c7.84,2.09,14.28,4.22,19.32,6.38c5.03,2.16,9.38,5.33,13.04,9.51
			c3.66,4.19,5.56,9.74,5.69,16.67c0,6.15-1.7,11.64-5.1,16.48c-3.4,4.84-8.21,8.63-14.42,11.38c-6.21,2.75-13.5,4.12-21.87,4.12
			C1346.1,233,1338.48,231.46,1331.75,228.39z"/>
		<path class="st40" d="M1421.28,104.73c-2.75-2.74-4.12-6.14-4.12-10.2c0-4.05,1.37-7.45,4.12-10.2c2.74-2.75,6.14-4.12,10.2-4.12
			c3.92,0,7.26,1.37,10,4.12c2.74,2.74,4.12,6.15,4.12,10.2c0,4.05-1.37,7.45-4.12,10.2c-2.74,2.75-6.08,4.12-10,4.12
			C1427.43,108.85,1424.03,107.47,1421.28,104.73z M1442.47,123.16v108.07h-22.36V123.16H1442.47z"/>
		<path class="st40" d="M1509.83,126.4c6.6-3.33,13.96-5,22.07-5c9.54,0,18.17,2.29,25.89,6.86c7.71,4.58,13.79,11.08,18.24,19.52
			c4.44,8.43,6.67,18.08,6.67,28.93c0,10.85-2.22,20.56-6.67,29.12c-4.45,8.57-10.56,15.23-18.34,20.01
			c-7.78,4.78-16.38,7.16-25.79,7.16c-8.37,0-15.79-1.64-22.26-4.9c-6.47-3.27-11.61-7.45-15.4-12.55v15.69h-22.36V86.09h22.36
			v53.15C1498.03,134.02,1503.23,129.73,1509.83,126.4z M1555.34,157.39c-3.08-5.42-7.13-9.54-12.16-12.36
			c-5.04-2.81-10.43-4.22-16.18-4.22c-5.62,0-10.95,1.44-15.99,4.31c-5.03,2.88-9.09,7.06-12.16,12.55
			c-3.08,5.49-4.61,11.97-4.61,19.42c0,7.45,1.53,13.96,4.61,19.52c3.07,5.56,7.12,9.77,12.16,12.65
			c5.03,2.88,10.36,4.31,15.99,4.31c5.75,0,11.14-1.47,16.18-4.41c5.03-2.94,9.09-7.22,12.16-12.85c3.07-5.62,4.61-12.16,4.61-19.61
			C1559.94,169.26,1558.41,162.82,1555.34,157.39z"/>
		<path class="st40" d="M1606.04,104.73c-2.75-2.74-4.12-6.14-4.12-10.2c0-4.05,1.37-7.45,4.12-10.2c2.74-2.75,6.14-4.12,10.2-4.12
			c3.92,0,7.26,1.37,10,4.12c2.74,2.74,4.12,6.15,4.12,10.2c0,4.05-1.37,7.45-4.12,10.2c-2.74,2.75-6.08,4.12-10,4.12
			C1612.18,108.85,1608.78,107.47,1606.04,104.73z M1627.22,123.16v108.07h-22.36V123.16H1627.22z"/>
		<path class="st40" d="M1678.99,86.09v145.14h-22.36V86.09H1678.99z"/>
		<path class="st40" d="M1709.59,104.73c-2.75-2.74-4.12-6.14-4.12-10.2c0-4.05,1.37-7.45,4.12-10.2c2.74-2.75,6.14-4.12,10.2-4.12
			c3.92,0,7.26,1.37,10,4.12c2.74,2.74,4.12,6.15,4.12,10.2c0,4.05-1.37,7.45-4.12,10.2c-2.74,2.75-6.08,4.12-10,4.12
			C1715.73,108.85,1712.34,107.47,1709.59,104.73z M1730.77,123.16v108.07h-22.36V123.16H1730.77z"/>
		<path class="st40" d="M1786.28,141.4v59.82c0,4.05,0.95,6.96,2.84,8.73c1.89,1.76,5.13,2.65,9.71,2.65h13.73v18.63h-17.65
			c-10.07,0-17.78-2.35-23.14-7.06c-5.36-4.71-8.04-12.36-8.04-22.95V141.4h-12.75v-18.24h12.75V96.29h22.56v26.87h26.28v18.24
			H1786.28z"/>
		<path class="st40" d="M1930.43,123.16l-66.29,158.87H1841l21.97-52.56l-42.56-106.3h24.91l30.4,82.38l31.58-82.38H1930.43z"/>
	</g>
	<polygon class="st25" points="526.15,352.63 394.61,352.63 273.52,160.38 155.02,160.38 235.53,290.2 196.05,352.63 0,352.63 
		222.88,0 303.27,0 	"/>
</g>
</svg>
